<?xml version="1.0" encoding="UTF-8" standalone="no"?>
<!-- Created with Inkscape (http://www.inkscape.org/) -->

<svg
   xmlns:dc="http://purl.org/dc/elements/1.1/"
   xmlns:cc="http://creativecommons.org/ns#"
   xmlns:rdf="http://www.w3.org/1999/02/22-rdf-syntax-ns#"
   xmlns:svg="http://www.w3.org/2000/svg"
   xmlns="http://www.w3.org/2000/svg"
   xmlns:sodipodi="http://sodipodi.sourceforge.net/DTD/sodipodi-0.dtd"
   xmlns:inkscape="http://www.inkscape.org/namespaces/inkscape"
   width="300mm"
   height="270mm"
   viewBox="0 0 300 270"
   version="1.1"
   id="svg8"
   inkscape:version="0.92.3 (2405546, 2018-03-11)"
   sodipodi:docname="pandy.svg"
   inkscape:export-filename="I:\Pictures\oc\vectors\pandy.png"
   inkscape:export-xdpi="517.8847"
   inkscape:export-ydpi="517.8847">
  <defs
     id="defs2" />
  <sodipodi:namedview
     id="base"
     pagecolor="#ffffff"
     bordercolor="#666666"
     borderopacity="1.0"
     inkscape:pageopacity="0.0"
     inkscape:pageshadow="2"
     inkscape:zoom="0.5"
     inkscape:cx="331.23788"
     inkscape:cy="378.003"
     inkscape:document-units="mm"
     inkscape:current-layer="layer2"
     showgrid="false"
     showborder="true"
     inkscape:snap-bbox="true"
     inkscape:bbox-paths="true"
     inkscape:bbox-nodes="true"
     inkscape:snap-bbox-edge-midpoints="true"
     inkscape:snap-bbox-midpoints="true"
     inkscape:object-paths="true"
     inkscape:snap-intersection-paths="true"
     inkscape:snap-smooth-nodes="true"
     inkscape:snap-midpoints="true"
     inkscape:snap-object-midpoints="true"
     inkscape:snap-center="true"
     inkscape:snap-text-baseline="true"
     inkscape:snap-page="true"
     inkscape:snap-global="true"
     inkscape:window-width="1920"
     inkscape:window-height="1027"
     inkscape:window-x="-8"
     inkscape:window-y="-8"
     inkscape:window-maximized="1"
     units="mm"
     height="1000mm" />
  <metadata
     id="metadata5">
    <rdf:RDF>
      <cc:Work
         rdf:about="">
        <dc:format>image/svg+xml</dc:format>
        <dc:type
           rdf:resource="http://purl.org/dc/dcmitype/StillImage" />
        <dc:title></dc:title>
      </cc:Work>
    </rdf:RDF>
  </metadata>
  <g
     inkscape:groupmode="layer"
     id="layer2"
     inkscape:label="Layer 2"
     style="display:inline;opacity:1"
     transform="translate(0,-27)">
    <g
       id="g1153"
       transform="translate(-48.350106,-25.399992)">
      <path
         inkscape:connector-curvature="0"
         id="path1056"
         d="m 134.83828,185.90807 -7.28084,3.29884 1.26157,19.22382 8.79739,-0.76068 z"
         style="fill:#000000;fill-opacity:1;stroke:none;stroke-width:0.66499996;stroke-linecap:round;stroke-linejoin:round;stroke-miterlimit:4;stroke-dasharray:none;stroke-opacity:1" />
      <path
         sodipodi:nodetypes="ccsccsscccccccssssscscccccccccc"
         inkscape:connector-curvature="0"
         id="path1054"
         d="m 99.214293,213.67884 c -2.900268,-7.13633 -4.222467,-14.62335 -5.576416,-22.10331 -0.638183,-4.09884 2.133242,-2.1035 1.677603,-5.88236 -0.351039,-2.91134 -1.909839,-1.62006 -2.987222,-5.67036 -0.877764,-3.57242 -1.750392,-7.31046 -2.432153,-11.03823 -0.200989,-1.16013 -0.256577,-1.95236 -0.212649,-2.51326 0.05865,-0.74887 0.440212,-1.02286 0.906247,-1.20246 1.10822,-0.42709 1.782061,-0.49587 1.551465,-4.79682 3.43604,-1.48157 7.005072,-2.76366 10.616382,-3.98233 -0.5729,-4.92444 -0.74334,-9.84887 -0.88777,-14.77331 2.96642,-1.355 5.82667,-2.74538 8.60608,-4.16272 3.07191,-0.59352 6.11102,-1.12145 9.12057,-1.59025 3.10736,5.84883 4.41846,12.71233 4.11595,18.66209 -0.63674,0.0622 -1.53288,-0.94363 -1.63703,-1.87089 -0.99784,0.0999 -1.45259,1.20527 -0.96865,2.82097 0.3368,1.12445 0.8564,2.40548 1.12457,3.48701 0.24176,0.975 0.51762,1.98951 0.77406,3.00643 0.29934,1.18705 0.56565,2.38395 0.70759,3.53791 0.23926,1.94513 0.41122,3.80063 0.42517,5.35292 0.0187,2.08277 -0.97665,3.46191 -4.05033,3.43878 -1.26067,0.86195 -1.59379,1.74741 -1.56748,2.41423 0.0735,1.86241 4.18427,3.12404 6.52842,4.00196 l 7.84364,26.23796 1.94594,-21.14473 7.60677,1.98438 c 0.80518,-7.26535 1.89989,-14.53071 3.14501,-21.79606 3.82809,-4.38915 11.02188,-8.74673 17.39327,3.37444 -0.29034,9.70472 -0.53294,19.419 -1.24853,29.03867 l -1.49336,20.8487 -57.43622,-0.18709 z"
         style="fill:#49535c;fill-opacity:1;stroke:none;stroke-width:0.66499996;stroke-linecap:round;stroke-linejoin:round;stroke-miterlimit:4;stroke-dasharray:none;stroke-opacity:1" />
      <path
         sodipodi:nodetypes="ccccccc"
         inkscape:connector-curvature="0"
         id="path1032"
         d="m 146.50499,208.48606 c 0.5322,-6.61441 1.24402,-13.20936 2.2305,-19.95072 2.97085,-1.12649 7.42851,-0.68693 9.44798,1.6838 0.36115,4.62084 0.4588,9.19776 0.56229,13.77566 l -0.14134,12.13612 -11.88013,-2.15152 z"
         style="fill:#000000;fill-opacity:1;stroke:none;stroke-width:0.66499996;stroke-linecap:round;stroke-linejoin:round;stroke-miterlimit:4;stroke-dasharray:none;stroke-opacity:1" />
      <path
         inkscape:connector-curvature="0"
         id="path1026"
         d="m 123.6864,207.53589 -4.3706,3.54364 -7.77367,-8.46608 -3.77906,-17.77311 8.79317,-2.43215 z"
         style="fill:#000000;fill-opacity:1;stroke:none;stroke-width:0.66499996;stroke-linecap:round;stroke-linejoin:round;stroke-miterlimit:4;stroke-dasharray:none;stroke-opacity:1" />
      <path
         sodipodi:nodetypes="cccccccsccssccccssscccc"
         inkscape:connector-curvature="0"
         id="path952"
         d="m 155.94213,207.43948 c -1.68461,-3.57624 -4.73428,-3.00793 -6.64537,-0.56945 -2.57606,3.16016 -3.31007,1.60153 -3.34421,-0.44433 -0.075,-4.55195 -5.1661,-3.16909 -6.99244,-2.03459 -2.71143,1.77555 -5.4346,4.35963 -7.95127,1.37977 -1.58077,-1.89914 -4.2825,-1.64913 -5.09817,0.8419 -0.9058,2.67898 -2.54941,0.85117 -3.22728,-0.37417 -1.61258,-2.95718 -4.53918,-4.45292 -7.43592,-4.64343 -5.73229,-0.37701 -7.88651,6.53214 -6.43202,12.99226 -3.77296,-0.58153 -7.54591,-0.92678 -11.318869,-0.93545 -1.0101,0.007 -1.94252,0.033 -2.776796,0.0874 -1.847311,0.12032 -2.441074,0.85308 -2.55861,1.68444 -0.154935,1.0959 0.0381,1.91667 0.23724,2.62477 1.190057,4.00297 0.27212,5.22854 -2.993419,7.13275 -5.166372,2.98169 -8.692148,8.3567 1.262848,8.37222 3.179445,-0.0819 6.36528,-0.23399 9.588296,-0.79513 -8.285754,5.33296 -13.576296,10.94116 -18.402584,14.96062 -3.566106,2.96995 -6.481503,5.63226 -8.886634,8.47578 -4.261665,5.03846 -7.221253,9.97093 -10.337657,15.99239 -8.22146,15.88539 -12.270964,32.56935 -9.61338,50.21276 H 95.789397 L 160.66823,210.01823 Z"
         style="fill:#6c9c90;fill-opacity:1;stroke:none;stroke-width:0.66499996;stroke-linecap:round;stroke-linejoin:round;stroke-miterlimit:4;stroke-dasharray:none;stroke-opacity:1" />
      <path
         sodipodi:nodetypes="cccccccccsccccccccc"
         inkscape:connector-curvature="0"
         id="path960"
         d="m 145.56668,219.46926 c -0.82563,-3.47508 -1.34771,-7.08802 -1.04068,-10.84527 -5.83267,2.40905 -10.41899,5.91782 -14.00331,10.31071 -2.46535,-2.94136 -4.834,-5.60157 -6.88047,-7.73824 -2.22395,3.85303 -3.26264,7.51256 -3.3263,11.01289 l -0.6961,1.28819 -0.51079,-0.79557 c -2.59625,-4.75353 -5.18326,-9.50525 -6.01393,-13.91428 -2.66739,5.22139 -3.50222,10.19514 -3.88209,15.10741 -7.36777,-4.49712 -12.709279,-6.9923 -14.128057,-5.40994 -1.813686,2.0228 0.310616,7.75155 6.012717,13.74415 l 0.28977,-0.0833 0.73082,-0.42972 1.66918,-0.90475 5.79967,-2.73549 6.96185,-2.29857 9.06198,-2.03398 17.61132,-2.4474 z"
         style="fill:#000000;fill-opacity:1;stroke:none;stroke-width:0.66499996;stroke-linecap:round;stroke-linejoin:round;stroke-miterlimit:4;stroke-dasharray:none;stroke-opacity:1" />
      <path
         sodipodi:nodetypes="cccccc"
         inkscape:connector-curvature="0"
         id="path958"
         d="m 142.27215,224.4246 4.45298,-0.92617 -0.87244,-3.56955 c -0.61962,-1.12805 -1.63633,-1.93843 -2.87847,-2.56846 -14.24801,0.14802 -28.12061,6.16605 -42.71808,15.39802 12.30005,-6.09378 26.54474,-8.40633 42.01601,-8.33384 z"
         style="fill:#6a471d;fill-opacity:1;stroke:none;stroke-width:0.66499996;stroke-linecap:round;stroke-linejoin:round;stroke-miterlimit:4;stroke-dasharray:none;stroke-opacity:1" />
      <path
         sodipodi:nodetypes="cccccccccccccc"
         inkscape:connector-curvature="0"
         id="path954"
         d="m 74.40264,322.39997 h 67.87705 l -1.5875,-12.89841 -32.01459,-17.19791 12.50157,-26.45834 7.86524,-21.32369 -2.4976,-0.67078 c -14.69463,5.18337 -35.194431,24.7809 -40.766656,37.4337 5.876573,-4.88569 11.568849,-9.92111 18.802406,-13.70425 -13.387807,9.59256 -27.025536,34.50322 -32.179247,51.02844 4.272366,-9.52172 9.227347,-18.66199 21.839002,-23.52352 l 3.093404,-0.60355 -1.025934,3.14133 C 86.206566,303.86888 78.86148,312.09718 74.40264,322.39997 Z"
         style="fill:#000000;fill-opacity:1;stroke:none;stroke-width:0.66499996;stroke-linecap:round;stroke-linejoin:round;stroke-miterlimit:4;stroke-dasharray:none;stroke-opacity:1" />
      <path
         sodipodi:nodetypes="csscccccc"
         inkscape:connector-curvature="0"
         id="path950"
         d="m 120.38542,251.02864 c -5.08208,5.95148 -9.72141,12.46919 -13.93889,18.35889 -0.94317,1.31714 -1.57645,2.30619 -2.18328,3.14989 -0.87951,1.22281 -5.162302,3.24378 -10.251194,7.39074 l 5.144936,2.89986 31.898618,-1.21605 16.41703,-31.19705 -13.79779,-5.09817 z"
         style="fill:#f0afd9;fill-opacity:1;stroke:none;stroke-width:0.66499996;stroke-linecap:round;stroke-linejoin:round;stroke-miterlimit:4;stroke-dasharray:none;stroke-opacity:1" />
      <path
         sodipodi:nodetypes="ccccccccc"
         inkscape:connector-curvature="0"
         id="path948"
         d="m 178.24917,235.12093 2.79197,-7.83864 -30.95625,-5.75469 -10.09579,5.92218 c -6.20293,8.10472 -12.91903,15.77928 -19.60368,23.57886 7.25295,-0.81304 14.35037,-0.74469 21.33893,-0.0595 l 19.86992,1.44853 17.33021,-14.75052 z"
         style="fill:#b24c8e;fill-opacity:1;stroke:none;stroke-width:0.66499996;stroke-linecap:round;stroke-linejoin:round;stroke-miterlimit:4;stroke-dasharray:none;stroke-opacity:1" />
      <path
         sodipodi:nodetypes="cscssscsscccccc"
         inkscape:connector-curvature="0"
         id="path946"
         d="m 157.06094,207.52484 c -4.00326,-0.39518 -5.23535,0.34133 -5.27908,1.42586 -0.0578,1.43313 1.3333,1.79682 4.3904,1.75465 -5.61429,1.10563 -6.8061,0.11242 -6.79495,1.79332 0.007,1.12372 0.39734,2.37831 -0.1035,3.05547 -0.97947,1.32431 -2.10267,2.77832 -3.54273,4.52224 -2.17268,2.63113 -4.22805,5.32861 -5.74198,7.3734 7.20676,-0.11294 14.59999,0.47559 21.47408,0.90472 3.18553,0.19887 6.18856,0.59078 8.84011,1.40605 3.36917,1.03591 6.14411,2.69107 7.94588,5.36038 l 11.59905,-0.79564 6.50133,-18.84918 -5.47234,-6.5481 -25.86501,-5.47235 z"
         style="fill:#f0afd9;fill-opacity:1;stroke:none;stroke-width:0.66499996;stroke-linecap:round;stroke-linejoin:round;stroke-miterlimit:4;stroke-dasharray:none;stroke-opacity:1" />
      <path
         inkscape:connector-curvature="0"
         id="path944"
         d="M 247.14413,322.39997 H 158.18347 L 158.65119,297 l 41.53368,-6.64165 30.49546,-0.93543 10.5705,-6.73521 7.85773,3.08697 z"
         style="fill:#eee7d5;fill-opacity:1;stroke:none;stroke-width:0.66499996;stroke-linecap:round;stroke-linejoin:round;stroke-miterlimit:4;stroke-dasharray:none;stroke-opacity:1" />
      <path
         sodipodi:nodetypes="csscccc"
         inkscape:connector-curvature="0"
         id="path942"
         d="m 164.82569,313.05412 c 8.12825,0.73328 19.46498,-0.40802 32.22158,2.20589 2.67146,0.5474 5.36585,1.54478 8.18611,2.62626 5.03243,1.92977 10.93334,0.66615 16.88433,4.5137 h -57.97683 l -3.91808,-7.08533 z"
         style="fill:#2ebec6;fill-opacity:1;stroke:none;stroke-width:0.66499996;stroke-linecap:round;stroke-linejoin:round;stroke-miterlimit:4;stroke-dasharray:none;stroke-opacity:1" />
      <path
         sodipodi:nodetypes="ccccccc"
         inkscape:connector-curvature="0"
         id="path940"
         d="m 245.03724,322.39997 h 29.99713 l -3.50573,-24.67237 -14.2875,-27.38437 -10.47513,4.52961 -4.08257,11.2684 c 0.99821,12.15745 3.03843,24.66223 2.3538,36.25873 z"
         style="fill:#000000;fill-opacity:1;stroke:none;stroke-width:0.66499996;stroke-linecap:round;stroke-linejoin:round;stroke-miterlimit:4;stroke-dasharray:none;stroke-opacity:1" />
      <path
         sodipodi:nodetypes="csccccccccc"
         inkscape:connector-curvature="0"
         id="path938"
         d="m 271.37211,288.72132 c 1.70417,4.48036 4.29979,8.93143 6.10578,13.47947 2.00128,5.03987 3.55679,10.14965 5.16632,15.28542 l -9.79879,-3.15711 -2.08142,-3.32055 c -4.61159,-9.21179 -9.73071,-18.65508 -15.38359,-27.63536 l 3.36322,-0.53348 10.54711,2.57249 0.93546,2.09304 0.60172,0.625 z"
         style="fill:#f0afd9;fill-opacity:1;stroke:none;stroke-width:0.66499996;stroke-linecap:round;stroke-linejoin:round;stroke-miterlimit:4;stroke-dasharray:none;stroke-opacity:1" />
      <path
         sodipodi:nodetypes="ccsscccccccccsssscsscccc"
         inkscape:connector-curvature="0"
         id="path936"
         d="m 240.51604,284.89833 c 1.24554,7.68052 1.70971,15.26336 2.27828,22.85926 -8.64514,-6.98428 -12.39102,-9.40138 -15.34693,-11.69001 -1.39031,-1.07645 -2.95706,-1.90499 -5.62339,-2.63775 -6.31293,-1.73492 -23.68341,0.95629 -37.54345,2.73099 l -5.28993,0.0454 -8.16901,6.35 -2.61276,2.18281 -1.02174,2.01293 c 0.16558,3.84907 -2.38286,6.30634 -4.54791,8.96022 l -7.15469,-1.17705 -25.97097,-22.03308 -0.68983,-13.34804 c 3.7025,-12.66851 9.4534,-23.64608 16.14701,-32.95052 3.41023,-4.74038 7.02189,-9.07694 10.95768,-13.01072 2.17216,-2.17105 4.6118,-2.87859 7.18146,-3.37886 1.0702,-0.20835 1.99857,-0.40323 2.86843,-0.66262 3.73018,-1.11234 3.97015,-7.3138 14.53369,-13.04768 -2.19038,6.94375 -5.17805,13.40343 -8.6434,19.5731 -1.0174,1.81137 -2.20916,3.52707 -3.43097,5.22429 -2.36201,3.28107 -4.06459,4.22464 -6.38032,10.19376 8.13002,-9.23412 17.76618,-17.67088 28.00744,-25.78729 l 1.69204,7.66333 z"
         style="fill:#000000;fill-opacity:1;stroke:none;stroke-width:0.66499996;stroke-linecap:round;stroke-linejoin:round;stroke-miterlimit:4;stroke-dasharray:none;stroke-opacity:1" />
      <path
         sodipodi:nodetypes="cssssccsccc"
         inkscape:connector-curvature="0"
         id="path932"
         d="m 140.37423,296.4257 c 2.55197,2.37442 6.043,5.19312 9.7228,8.39368 1.68993,1.46985 3.47671,2.94895 5.23742,4.49404 1.52662,1.33967 3.15823,2.69888 4.68,4.14715 0.68253,0.64956 1.40635,1.23675 2.10401,1.82871 2.06257,1.75008 6.18836,4.03302 3.75903,7.11069 h -29.7471 c 0.30038,-3.09758 0.23955,-3.21386 -0.33147,-4.01377 -1.09508,-1.53404 -5.20796,-3.82271 -10.25846,-8.14957 l 4.67325,-10.19644 z"
         style="fill:#eee7d5;fill-opacity:1;stroke:none;stroke-width:0.66499996;stroke-linecap:round;stroke-linejoin:round;stroke-miterlimit:4;stroke-dasharray:none;stroke-opacity:1" />
      <path
         sodipodi:nodetypes="cccccccccc"
         inkscape:connector-curvature="0"
         id="path920"
         d="m 169.38302,141.93559 c -5.30868,3.29031 -10.773,6.19153 -16.25542,9.04748 3.21726,1.55444 7.19009,1.2955 11.27787,0.76068 -1.89757,1.90404 -3.52143,3.7807 -4.79558,5.6224 3.02352,0.0568 5.63935,-0.90571 8.16901,-2.0836 0.52153,3.85342 0.77865,7.75972 0.99219,11.67474 2.04163,-2.01289 3.9075,-4.20153 5.63743,-6.52612 l 5.11127,-12.2593 -6.69018,-7.60677 z"
         style="fill:#b6bfbe;fill-opacity:1;stroke:none;stroke-width:0.66499996;stroke-linecap:round;stroke-linejoin:round;stroke-miterlimit:4;stroke-dasharray:none;stroke-opacity:1" />
      <path
         sodipodi:nodetypes="cssssssssssssssssccccc"
         inkscape:connector-curvature="0"
         id="path918"
         d="m 170.84819,277.25494 c -1.40158,1.39434 -2.36779,1.7543 -3.06993,2.44705 -0.4686,0.46233 -0.81221,0.88139 -1.06701,1.28017 -0.85839,1.34347 -0.34788,2.30636 1.60819,3.15948 2.12238,0.92565 5.38817,1.58087 8.85162,2.04765 5.19572,0.70024 11.53163,1.49405 21.96004,1.18797 1.52028,-0.0446 2.70985,-0.18567 3.7451,-0.39759 0.84912,-0.17382 1.58493,-0.43754 2.30834,-0.76107 0.7872,-0.35206 1.39841,-0.75282 2.03984,-1.17394 0.86438,-0.56749 1.69358,-0.9793 3.06015,-1.31146 1.6421,-0.39914 4.01151,-0.60771 8.16051,-0.84927 2.53151,-0.14739 5.59539,-0.18823 9.59216,-0.32075 2.9824,-0.0989 8.09353,-0.60361 13.66584,3.05802 0.6178,0.40596 1.47721,0.7615 2.46294,1.04682 0.93997,0.27208 1.95679,0.56795 2.96939,0.8268 1.09274,0.27934 2.19244,0.72272 3.1896,1.12025 1.78325,0.71091 3.24416,1.65575 3.74826,1.07561 0.52639,-0.6058 -0.51673,-3.1083 -2.27322,-8.80862 l -7.4573,-11.39873 -34.66042,0.46302 -36.90938,3.24115 z"
         style="fill:#f0afd9;fill-opacity:1;stroke:none;stroke-width:0.66499996;stroke-linecap:round;stroke-linejoin:round;stroke-miterlimit:4;stroke-dasharray:none;stroke-opacity:1" />
      <path
         sodipodi:nodetypes="cssscccc"
         inkscape:connector-curvature="0"
         id="path916"
         d="m 235.79278,216.80123 c 3.33469,1.22237 7.066,3.19275 12.04252,6.06326 2.82995,1.63235 5.28363,3.44989 6.18824,5.29999 0.96547,1.97457 1.11082,4.27297 1.07319,6.51124 -0.0498,2.96183 0.23483,3.99428 0.36574,7.68004 l -5.67571,-2.37104 -15.59852,-16.4638 z"
         style="fill:#eee7d5;fill-opacity:1;stroke:none;stroke-width:0.66499996;stroke-linecap:round;stroke-linejoin:round;stroke-miterlimit:4;stroke-dasharray:none;stroke-opacity:1" />
      <path
         sodipodi:nodetypes="csccsscscccssccsscsscsccccccccc"
         inkscape:connector-curvature="0"
         id="path914"
         d="m 156.56719,267.59818 c -5.50329,4.20092 -6.38975,6.80166 -3.64517,7.46394 1.75069,0.42244 5.11911,-0.57526 9.42844,-1.18665 -3.91138,8.01908 0.8309,8.3344 8.49773,3.37947 0.16949,3.76342 0.27682,7.29898 3.14423,7.22633 1.92114,-0.0487 4.03445,-0.50479 5.69476,-1.43978 1.96808,-1.10832 3.62746,-2.67909 4.27142,-4.47012 0.43286,1.50345 0.85958,2.70056 1.32736,3.60592 1.00742,1.94981 6.65737,-0.94266 9.65491,-6.52012 0.50961,0.73205 1.08038,1.35196 1.77656,1.74197 L 210,275.97737 c 0.85862,2.78553 3.11687,3.20369 5.49831,2.36159 1.14293,-0.40415 2.11248,-1.13804 2.98797,-2.03618 1.52865,-1.56822 2.77051,-3.63718 4.14772,-5.32585 4.63865,10.74265 6.46196,7.43773 9.13151,0.34886 -0.0836,1.10021 0.57895,2.56951 1.70042,3.97502 1.97338,2.47321 5.06054,4.41611 6.07481,1.71334 0.36097,-0.96189 0.65423,-2.31686 0.80361,-4.17175 0.38625,3.63323 3.22696,7.97533 7.17847,9.29252 2.07215,0.69072 3.86769,0.48596 4.27719,-1.25285 0.2303,-0.97792 0.22562,-2.21232 0.26127,-3.67883 0.43818,1.57823 0.95347,3.16295 1.83268,4.44521 1.0411,1.51836 5.03987,5.52305 5.1303,2.76985 2.96834,-0.21056 7.53229,1.8659 12.34785,4.30302 -3.2419,-7.66193 -6.46044,-15.3262 -8.8393,-23.07444 l -2.15216,-2.60348 -10.05601,-4.63044 -2.94665,12.2543 -22.59096,-2.0112 -36.43552,1.59025 z"
         style="fill:#b24c8e;fill-opacity:1;stroke:none;stroke-width:0.66499996;stroke-linecap:round;stroke-linejoin:round;stroke-miterlimit:4;stroke-dasharray:none;stroke-opacity:1" />
      <path
         inkscape:connector-curvature="0"
         id="path912"
         d="m 206.07817,209.06832 7.15614,-2.99342 12.90912,2.99342 6.26747,7.01583 -0.14032,18.70886 -8.18513,-2.80633 z"
         style="fill:#eee7d5;fill-opacity:1;stroke:none;stroke-width:0.66499996;stroke-linecap:round;stroke-linejoin:round;stroke-miterlimit:4;stroke-dasharray:none;stroke-opacity:1" />
      <path
         sodipodi:nodetypes="cccccc"
         inkscape:connector-curvature="0"
         id="path910"
         d="m 215.09949,216.11275 c 6.44904,1.36727 10.44269,3.49005 13.46743,5.91095 -3.45916,2.60834 -1.85449,5.56623 1.45863,9.60334 l -4.93128,-0.0122 -11.64167,-12.36927 z"
         style="fill:#f0afd9;fill-opacity:1;stroke:none;stroke-width:0.66499996;stroke-linecap:round;stroke-linejoin:round;stroke-miterlimit:4;stroke-dasharray:none;stroke-opacity:1" />
      <path
         sodipodi:nodetypes="cccccssssssccccccssccccccccccccc"
         inkscape:connector-curvature="0"
         id="path871"
         d="m 174.86956,104.5355 c -6.50973,8.49745 -7.96267,15.37477 -8.03404,21.80944 l 5.99409,14.22016 -1.32269,3.4356 c -0.12416,0.44586 0.70683,1.41676 0.70683,1.41676 0,0 -1.16452,0.47539 -1.21835,0.75871 -0.77543,4.08113 -0.35218,7.53362 0.97758,10.58067 0.86937,1.99211 2.26574,3.68114 4.01521,5.21526 3.42189,3.00067 7.76588,5.7354 12.4421,8.77104 1.40451,0.91177 2.6916,1.95201 4.00947,3.02321 0.90811,0.73813 1.79033,1.6916 2.73297,2.59575 2.66939,2.56036 2.49222,2.9531 4.94533,2.6384 l 5.07576,14.33953 3.68527,4.06324 9.26042,6.4256 5.71689,-2.78758 -0.28349,-1.38197 c 0.11634,-0.33809 0.16706,-0.61129 0.18473,-0.98832 0.0107,-0.22857 -0.10755,-0.60032 -0.0974,-0.8288 0.27861,-6.29322 0.3478,-12.5545 1.66089,-19.00701 l 1.15645,-4.31145 3.73342,-11.49761 5.32034,-8.61443 1.20271,-5.37879 9.13604,-10.25827 -4.5086,-9.33621 -8.51273,-21.86577 -12.58307,-9.671621 -12.47321,-6.520087 -21.16667,5.480653 -13.4654,6.118485 z"
         style="fill:#eee7d5;fill-opacity:1;stroke:none;stroke-width:0.66499996;stroke-linecap:round;stroke-linejoin:round;stroke-miterlimit:4;stroke-dasharray:none;stroke-opacity:1" />
      <path
         sodipodi:nodetypes="cccccccsc"
         inkscape:connector-curvature="0"
         id="path869"
         d="m 217.39035,172.35217 c -3.94704,2.93182 -9.27837,5.31639 -17.27229,6.64833 l -0.42083,4.65814 -1.95526,2.55905 1.40724,3.507 7.38332,0.90204 v 0 c 2.1831,-3.56865 4.63333,-7.16401 6.81361,-10.73238 1.54832,-2.53409 4.68503,-6.73183 4.04421,-7.54218 z"
         style="fill:#000000;fill-opacity:1;stroke:none;stroke-width:0.66499996;stroke-linecap:round;stroke-linejoin:round;stroke-miterlimit:4;stroke-dasharray:none;stroke-opacity:1" />
      <path
         sodipodi:nodetypes="cccccc"
         inkscape:connector-curvature="0"
         id="path883"
         d="m 224.07741,212.67308 c 0.95959,3.87971 3.61809,5.69645 6.39631,7.36782 l 0.85479,-2.11825 -3.45612,-9.42578 -2.72851,1.17409 z"
         style="fill:#000000;fill-opacity:1;stroke:none;stroke-width:0.66499996;stroke-linecap:round;stroke-linejoin:round;stroke-miterlimit:4;stroke-dasharray:none;stroke-opacity:1" />
      <path
         sodipodi:nodetypes="cccccccsscsssccccccc"
         inkscape:connector-curvature="0"
         id="path879"
         d="m 199.69971,183.63121 c -3.01606,-0.80424 -5.2769,-0.24326 -7.14919,1.02009 -3.02397,1.30112 -4.78013,3.27456 -4.89479,6.11849 l 1.9513,5.55625 16.93333,12.96458 2.54662,-0.49609 c 2.06323,0.39403 3.96826,0.11218 5.68854,-0.95911 1.21046,5.69807 9.2016,6.91139 12.23478,2.72542 0.0815,-0.11245 0.29686,-0.14819 0.37096,-0.26846 0.0456,-0.074 -0.0477,-0.2302 -0.005,-0.30723 0.35792,0.009 0.78879,0.56736 1.09893,0.51235 0.3483,-0.0618 0.56971,-0.74466 0.85944,-0.87763 2.3861,-1.09512 2.81613,-4.42917 1.78753,-7.11313 -1.34576,-3.51154 -3.3319,-4.67492 -7.46218,-4.66134 l -0.0871,1.81392 v 0 c -2.17588,-0.88783 -4.47255,-0.23867 -6.44921,0.83391 -0.48919,-3.75979 -3.6166,-6.7281 -8.30131,-5.65547 -0.38964,-5.79969 -7.36994,-7.04971 -9.67318,-5.11307 z"
         style="fill:#2ebec6;fill-opacity:1;stroke:none;stroke-width:0.66499996;stroke-linecap:round;stroke-linejoin:round;stroke-miterlimit:4;stroke-dasharray:none;stroke-opacity:1" />
      <path
         sodipodi:nodetypes="csssssccssscccssssscssssccccssscc"
         inkscape:connector-curvature="0"
         id="path908"
         d="m 193.45379,194.21061 c 1.11796,-0.2126 2.2506,-0.0181 3.41348,0.51502 2.13116,0.97712 3.32234,1.95295 4.48699,3.40102 1.43161,1.77997 2.76544,4.29121 5.77343,8.38997 2.30744,3.14417 5.4953,7.02053 10.54945,12.37436 1.08065,1.14472 2.13627,2.40204 3.27924,3.73729 2.54025,2.96761 4.43615,6.22668 10.14855,9.67748 l 6.51646,-8.83517 c 2.98633,2.97494 6.11134,6.47099 9.30099,9.73326 1.44361,1.47648 2.84627,2.93895 4.12753,4.36341 1.38539,1.54025 2.74146,3.02855 4.08031,4.42699 1.72878,1.80571 2.81604,4.03589 2.68966,7.16952 l -1.181,11.02654 -4.56356,0.89908 c 1.41687,2.08822 1.08047,3.20911 0.32704,4.06872 -0.2358,0.26902 -0.40593,0.65446 -0.36944,1.31129 0.0253,0.45525 0.15245,0.9444 0.4507,1.7766 0.27924,0.77916 0.65391,1.31088 1.08247,1.7374 0.50309,0.5007 0.98298,1.00506 1.45184,1.62216 1.2585,1.65638 2.60289,4.09193 3.77245,9.5153 -14.0528,-9.38003 -28.08938,-10.94302 -41.22381,-9.87413 -5.34631,0.43508 -11.09397,1.44875 -16.84791,2.60456 -1.87804,0.37724 -3.81324,1.00372 -5.77779,1.80589 -2.87257,1.17295 -5.22614,1.93358 -7.20499,2.36526 -12.95473,2.82605 -30.38312,-4.09593 -31.16869,-10.42425 3.2982,-2.12384 7.01927,-3.73084 11.43843,-4.48462 -1.15024,-1.89456 -1.35413,-3.97848 2.12814,-4.13934 0.68375,-4.68548 0.74087,-9.41572 0.55556,-14.16328 6.44054,6.18147 7.97114,2.41 10.01498,-0.66501 1.26609,-1.90487 2.50915,-4.16624 3.72824,-6.28715 2.60208,-4.52694 4.76134,-9.84677 6.03334,-13.74103 1.04924,-3.21225 1.73715,-6.75846 2.04836,-10.65284 z"
         style="fill:#663787;fill-opacity:1;stroke:none;stroke-width:0.66499996;stroke-linecap:round;stroke-linejoin:round;stroke-miterlimit:4;stroke-dasharray:none;stroke-opacity:1" />
      <path
         sodipodi:nodetypes="csssssssssccc"
         inkscape:connector-curvature="0"
         id="path904"
         d="m 211.9033,262.41501 c -10.23568,-0.75255 -18.83339,-0.84083 -24.72119,-0.13018 -5.41415,0.65349 -8.53666,1.67491 -8.53459,2.32034 6.1e-4,0.19084 0.34855,0.26297 1.07874,0.28203 0.63848,0.0167 1.83158,0.25585 2.89624,0.70578 0.50271,0.21245 1.01739,0.54027 1.85889,0.86988 1.15121,0.45092 3.51075,0.90154 7.04246,1.06623 2.03604,0.0949 4.81738,0.29303 7.79056,0.24347 1.04612,-0.0174 1.57773,-0.12322 1.92086,-0.26613 0.34206,-0.14246 0.91959,-0.5658 1.62993,-0.97367 1.40635,-0.80752 3.08527,-0.62839 4.98439,0.0589 l 4.91699,0.0532 z"
         style="fill:#000000;fill-opacity:1;stroke:none;stroke-width:0.66499996;stroke-linecap:round;stroke-linejoin:round;stroke-miterlimit:4;stroke-dasharray:none;stroke-opacity:1" />
      <path
         sodipodi:nodetypes="cssssssssccc"
         inkscape:connector-curvature="0"
         id="path902"
         d="m 227.06501,244.28397 c -3.31564,-2.49073 -5.64166,-4.55922 -8.07838,-7.84851 -0.28119,-0.37957 -0.59556,-0.66794 -0.95578,-0.83043 -1.09871,-0.49562 -2.15569,-0.77325 -3.36761,-0.88574 -2.61797,-0.24301 -5.26265,0.42756 -8.24467,1.22198 -7.36633,1.96244 -14.22017,6.95496 -17.54416,9.88479 -0.55353,0.48789 -0.86222,0.94834 -0.87547,1.36525 -0.0143,0.45099 0.30361,0.89876 0.88866,1.34618 2.15729,1.64981 6.98499,5.09895 12.86526,7.39838 4.40857,1.72393 8.97882,1.97481 14.31883,1.99036 l 8.46034,-3.458 z"
         style="fill:#000000;fill-opacity:1;stroke:none;stroke-width:0.66499996;stroke-linecap:round;stroke-linejoin:round;stroke-miterlimit:4;stroke-dasharray:none;stroke-opacity:1" />
      <path
         sodipodi:nodetypes="cccsccccc"
         inkscape:connector-curvature="0"
         id="path900"
         d="m 242.0898,261.07488 c 3.32851,-0.23685 6.65701,-0.1145 9.98552,0.0145 l 0.82286,-4.49181 c -0.29843,-4.04563 0.0128,-10.57154 -0.94598,-11.47538 -1.11451,-1.05069 -4.16854,-0.3039 -6.7338,0.44629 l -5.53898,4.53409 -6.35,7.57369 1.75287,4.69636 z"
         style="fill:#000000;fill-opacity:1;stroke:none;stroke-width:0.66499996;stroke-linecap:round;stroke-linejoin:round;stroke-miterlimit:4;stroke-dasharray:none;stroke-opacity:1" />
      <path
         sodipodi:nodetypes="csscssccccc"
         inkscape:connector-curvature="0"
         id="path887"
         d="m 240.46862,239.29282 c 2.87959,-0.92753 5.9403,-0.70205 6.71769,0.49147 0.58794,0.90267 0.23628,2.0987 -0.70429,3.69021 -2.03735,3.44734 -5.85559,9.45185 -10.83749,16.94685 4.07112,0.64516 6.58198,-0.57339 6.60981,1.27845 0.0111,0.73582 -0.37923,1.13057 -1.14764,1.47798 -1.69886,0.76808 -5.25295,2.324 -10.39004,4.7842 1.08915,-1.63658 2.28456,-3.23331 3.04271,-4.99401 -3.11884,-0.0152 -6.12894,-0.19353 -9.07162,-0.47299 l 0.10886,-2.86738 z"
         style="fill:#b24c8e;fill-opacity:1;stroke:none;stroke-width:0.66499996;stroke-linecap:round;stroke-linejoin:round;stroke-miterlimit:4;stroke-dasharray:none;stroke-opacity:1" />
      <path
         sodipodi:nodetypes="ccccccc"
         inkscape:connector-curvature="0"
         id="path875"
         d="m 184.29904,148.9995 c -7.86567,6.68657 -11.8152,2.53865 -13.30364,-2.82333 0.13357,-0.7177 0.28208,-1.45451 0.51152,-2.17547 l 10.67067,-5.62517 5.21365,-0.0329 -1.27142,9.12011 z"
         style="fill:#cf6a78;fill-opacity:1;stroke:none;stroke-width:0.66499996;stroke-linecap:round;stroke-linejoin:round;stroke-miterlimit:4;stroke-dasharray:none;stroke-opacity:1" />
      <path
         sodipodi:nodetypes="cccccccccccccccccccccccccc"
         inkscape:connector-curvature="0"
         id="path834"
         d="m 221.73792,94.034815 c 0.34096,-12.841331 8.63965,-27.78296 17.2139,-36.67172 17.83401,11.745904 25.29552,28.90354 30.98223,46.987165 3.4611,-8.262468 7.7613,-15.930577 15.46159,-21.190291 10.19726,14.008502 13.31168,28.993951 16.37109,43.986981 1.13769,-8.82497 3.89498,-16.86328 9.43523,-23.54986 4.52955,4.09648 6.60571,12.73006 7.89354,20.97967 2.7793,-5.20592 6.44711,-9.8705 10.78321,-13.82453 5.56316,7.37128 7.79076,14.62203 9.04097,22.81777 2.37938,-1.20331 5.25684,-3.04608 7.55954,-5.48065 -0.90886,6.15115 -3.3837,12.0831 -6.89809,17.4814 0.50068,-3.4139 0.3513,-6.30138 -0.37795,-8.78795 -0.7554,1.99525 -1.79698,3.79971 -3.3073,5.29167 -0.26633,-4.08957 -1.20984,-8.46655 -3.49629,-12.09524 -0.72397,2.77372 -1.70066,4.49076 -3.24187,6.26809 -0.97354,-2.30938 -2.17332,-4.15774 -3.54352,-5.12629 -4.06151,6.02004 -9.82228,11.90465 -15.39025,15.72793 -0.26895,-4.44558 0.0732,-8.80969 -1.41739,-13.41816 -6.96648,4.53736 -12.90513,9.75993 -18.00114,15.54427 -3.97543,-5.01272 -7.87275,-10.06449 -12.70945,-14.64657 -7.11871,13.95985 -9.67526,9.90677 -17.67038,29.10416 -5.80172,-4.58568 -11.49662,-9.26176 -16.15848,-14.81194 l -2.90569,-19.18229 -3.49154,-13.78081 -7.88445,-12.6953 z"
         style="fill:#b6bfbe;fill-opacity:1;stroke:none;stroke-width:0.66499996;stroke-linecap:round;stroke-linejoin:round;stroke-miterlimit:4;stroke-dasharray:none;stroke-opacity:1" />
      <path
         sodipodi:nodetypes="ccccccsccssscccccc"
         inkscape:connector-curvature="0"
         id="path836"
         d="m 239.7314,109.05134 6.52009,37.41964 c 2.99937,3.52603 6.91928,5.7722 10.72507,7.79576 6.72628,-8.73311 13.53597,-17.42452 20.61625,-25.98063 6.6107,2.77654 11.37357,7.56159 15.96935,12.52826 5.71867,-4.33811 11.55008,-8.61652 15.80232,-13.73097 0.15195,4.70497 1.26201,7.88833 2.53385,9.58014 1.33185,1.77162 2.08516,1.90761 3.61335,0.44246 -0.12888,-5.80132 -2.00501,-13.44841 -4.27633,-15.80231 -1.35662,2.49154 -1.77694,4.91933 -2.28753,5.51323 -0.69956,0.81368 -1.46348,1.55026 -2.24682,2.38616 -1.89468,2.02182 -4.08019,3.75362 -6.10504,5.51811 -2.15422,1.87722 -4.42605,3.60646 -6.73312,5.29137 1.63402,-3.9207 2.33278,-8.07522 3.30747,-12.16076 -3.51658,-6.92209 -7.53336,-13.65661 -11.75985,-20.31249 -4.01375,5.04655 -7.11135,10.35486 -9.25423,15.93595 -5.76241,-10.61094 -12.15031,-21.17377 -22.48696,-31.43285 -4.64596,3.249491 -9.29191,9.22001 -13.93787,17.00893 z"
         style="fill:#000000;stroke:none;stroke-width:0.66499996;stroke-linecap:round;stroke-linejoin:round;stroke-miterlimit:4;stroke-dasharray:none;stroke-opacity:1" />
      <path
         sodipodi:nodetypes="cccccccccc"
         inkscape:connector-curvature="0"
         id="path867"
         d="m 211.28798,128.68856 c 3.94345,-0.76135 7.7605,-1.72284 10.9559,-3.6686 l 3.69138,-2.90482 -0.35435,-2.64583 0.14174,-4.63021 0.14175,-6.3311 -4.37035,0.4016 -9.26042,7.48865 -4.3231,6.89807 z"
         style="fill:#ffffff;fill-opacity:1;stroke:none;stroke-width:0.66499996;stroke-linecap:round;stroke-linejoin:round;stroke-miterlimit:4;stroke-dasharray:none;stroke-opacity:1" />
      <path
         sodipodi:nodetypes="cccccsssccc"
         inkscape:connector-curvature="0"
         id="path865"
         d="m 222.29778,107.91277 c 1.53407,-0.005 3.10162,0.19444 4.39344,-1.29465 -0.12238,4.64775 -0.41737,9.60179 -0.49742,14.27068 l -0.63651,1.36808 -0.37527,-0.66871 c 0.0853,-4.22062 0.0723,-7.2128 0.0761,-9.18232 0.004,-1.92148 -0.17903,-2.86958 -1.03382,-3.03538 -0.16064,-0.0312 -0.34494,-0.01 -0.55204,0.0437 -0.2304,0.0593 -0.44806,0.16013 -0.64272,0.2986 l -1.32291,-0.61422 z"
         style="fill:#000000;fill-opacity:1;stroke:none;stroke-width:0.66499996;stroke-linecap:round;stroke-linejoin:round;stroke-miterlimit:4;stroke-dasharray:none;stroke-opacity:1" />
      <path
         sodipodi:nodetypes="cccccc"
         inkscape:connector-curvature="0"
         id="path863"
         d="m 202.24088,127.54855 -2.07887,1.98437 c 3.13874,1.91904 8.27967,2.83698 13.41816,3.75614 -2.79583,-1.83503 -4.3176,-3.7301 -0.39541,-6.25447 l -5.48685,-0.47823 z"
         style="fill:#000000;fill-opacity:1;stroke:none;stroke-width:0.66499996;stroke-linecap:round;stroke-linejoin:round;stroke-miterlimit:4;stroke-dasharray:none;stroke-opacity:1" />
      <path
         sodipodi:nodetypes="ccscccc"
         inkscape:connector-curvature="0"
         id="path861"
         d="m 206.96684,122.37277 -4.72596,5.17578 c 1.19945,2.4148 8.68688,1.94533 13.40527,-2.26156 3.49977,-3.12037 5.88016,-7.86679 3.72719,-12.8897 l -7.62906,4.36282 -3.31163,4.10092 z"
         style="fill:#3b7ea3;fill-opacity:1;stroke:none;stroke-width:0.66499996;stroke-linecap:round;stroke-linejoin:round;stroke-miterlimit:4;stroke-dasharray:none;stroke-opacity:1" />
      <path
         sodipodi:nodetypes="cccc"
         inkscape:connector-curvature="0"
         id="path859"
         d="m 213.80208,116.71814 c 0.53116,3.71952 -1.4982,6.84985 -4.77117,3.90871 l 2.71337,-3.86674 z"
         style="fill:#ffffff;fill-opacity:1;stroke:none;stroke-width:0.66499996;stroke-linecap:round;stroke-linejoin:round;stroke-miterlimit:4;stroke-dasharray:none;stroke-opacity:1" />
      <path
         sodipodi:nodetypes="csscccc"
         inkscape:connector-curvature="0"
         id="path853"
         d="m 165.43984,134.09922 c 0.43178,2.49843 1.4867,4.71186 2.866,6.52015 2.63267,3.45149 5.66815,5.65741 8.36801,5.38635 2.01154,-0.20195 4.56911,-1.75525 5.17032,-5.24006 l -7.19555,-13.05175 -8.38634,4.37035 z"
         style="fill:#ffffff;fill-opacity:1;stroke:none;stroke-width:0.66499996;stroke-linecap:round;stroke-linejoin:round;stroke-miterlimit:4;stroke-dasharray:none;stroke-opacity:1" />
      <path
         sodipodi:nodetypes="ccccccc"
         inkscape:connector-curvature="0"
         id="path849"
         d="m 189.62273,129.78052 c 3.07742,2.82356 7.57647,11.84048 -0.54625,13.00496 0.64336,2.74874 1.46155,5.45863 2.50566,8.11831 -2.4277,-0.85121 -4.8554,-1.58374 -7.2831,-1.90429 0.3664,-3.03679 1.01181,-6.29945 2.31011,-10.09064 l 1.34814,-6.16269 z"
         style="fill:#000000;fill-opacity:1;stroke:none;stroke-width:0.66499996;stroke-linecap:round;stroke-linejoin:round;stroke-miterlimit:4;stroke-dasharray:none;stroke-opacity:1" />
      <path
         sodipodi:nodetypes="cssccc"
         inkscape:connector-curvature="0"
         id="path847"
         d="m 189.66114,129.98995 c 0.90247,4.0577 0.39962,5.72693 -1.40632,7.57458 -2.03047,2.07737 -5.20054,3.24547 -7.65251,3.32496 -4.24867,0.13773 -8.04997,-3.11227 -6.4403,-11.01112 l 6.91221,-4.17246 z"
         style="fill:#cf3a40;fill-opacity:1;stroke:none;stroke-width:0.66499996;stroke-linecap:round;stroke-linejoin:round;stroke-miterlimit:4;stroke-dasharray:none;stroke-opacity:1" />
      <path
         sodipodi:nodetypes="cssccc"
         inkscape:connector-curvature="0"
         id="path845"
         d="m 178.93637,129.20851 c -0.62929,3.44566 1.13488,5.18167 3.308,5.18477 1.19486,0.002 2.48446,-0.55269 3.04329,-1.64554 0.41244,-0.80658 0.81103,-2.14031 -0.28872,-3.29253 l -1.75227,-2.10454 z"
         style="fill:#f6dcbe;fill-opacity:1;stroke:none;stroke-width:0.66499996;stroke-linecap:round;stroke-linejoin:round;stroke-miterlimit:4;stroke-dasharray:none;stroke-opacity:1" />
      <path
         sodipodi:nodetypes="cccccssssccccccccsscccsscccc"
         inkscape:connector-curvature="0"
         id="path828"
         d="m 190.16927,119.49293 c 5.06161,-7.16466 10.01338,-14.39268 12.80394,-22.867561 0.59478,2.562132 1.27526,5.076661 2.26786,7.417781 1.57484,-2.89346 2.57797,-6.009261 3.35454,-9.213167 6.73883,3.436547 13.21912,7.837587 19.65787,11.641337 2.04344,1.31747 2.68416,2.40517 2.43631,3.59466 -0.11639,0.55858 0.0105,0.90897 0.1688,1.22477 0.20018,0.39945 0.42514,2.18566 0.28221,4.33178 -0.0551,0.82704 -0.45534,1.5263 -1.21663,2.27202 -1.51393,1.48297 -4.37295,3.61033 -8.94984,6.37033 1.974,1.21551 4.01076,2.28041 6.14211,3.1183 -1.36514,2.0549 -2.65191,4.10377 -3.44526,6.11468 1.1633,-0.91662 2.40042,-1.72248 3.74178,-2.37201 0.18636,8.05252 -0.28908,16.02231 -0.80181,23.98744 6.1693,-7.90355 12.40087,-15.77455 14.75027,-25.67486 l 2.40675,-0.58316 1.79823,-2.15717 c -0.68497,-8.54529 -2.72951,-12.87789 -5.75611,-17.57583 -4.94017,-7.66821 -12.37092,-12.533432 -20.03419,-16.012426 -14.51042,-6.587474 -35.67416,-8.993822 -51.09562,-8.522302 2.54001,4.441682 6.09051,8.32585 10.45692,11.759858 -9.88726,5.32967 -17.71309,14.22505 -24.30891,25.24802 3.12259,-3.35206 6.47248,-6.43894 9.94608,-9.38148 1.96592,-1.66536 4.06814,-3.24053 6.13913,-4.81505 1.96668,-1.49521 4.14142,-2.65911 5.67205,-4.56054 -0.94957,3.04865 -2.11996,6.01449 -3.42541,8.92969 4.25924,-2.66318 8.49667,-5.36689 12.44959,-8.59896 0.77967,5.67677 2.39513,11.08761 4.55934,16.32385 z"
         style="display:inline;fill:#b6bfbe;fill-opacity:1;stroke:none;stroke-width:0.66499996;stroke-linecap:round;stroke-linejoin:round;stroke-miterlimit:4;stroke-dasharray:none;stroke-opacity:1" />
      <path
         sodipodi:nodetypes="ccccccccccccccc"
         inkscape:connector-curvature="0"
         id="path832"
         d="m 173.48037,91.128944 c -18.69791,-4.68731 -44.52428,-8.630214 -71.53311,-4.519943 9.15,12.847252 23.73366,21.231149 39.8883,28.324589 -12.91068,1.2508 -21.97665,3.60009 -29.29315,6.44922 6.52952,6.2576 15.77986,11.21571 28.27734,14.62295 -1.65009,2.00654 -3.68438,3.53283 -5.83501,4.91369 3.50443,1.71131 7.74838,2.54863 12.63858,2.62221 -2.50655,-1.01545 -5.01523,-2.02716 -7.27604,-3.47265 1.45322,-1.31073 2.88176,-2.64614 4.08687,-4.20499 -7.07594,-3.70935 -13.80641,-7.67781 -19.46577,-12.44959 6.47379,-3.68526 13.6588,-6.10048 21.37927,-7.55952 -15.08952,-8.5035 -24.31729,-15.85386 -31.77362,-22.855748 22.52828,-2.918573 43.45842,-1.295053 63.59928,2.571663 l 2.13339,-3.065423 z"
         style="fill:#b6bfbe;fill-opacity:1;stroke:none;stroke-width:0.66499996;stroke-linecap:round;stroke-linejoin:round;stroke-miterlimit:4;stroke-dasharray:none;stroke-opacity:1" />
      <path
         sodipodi:nodetypes="cscc"
         inkscape:connector-curvature="0"
         id="path838"
         d="m 325.60109,119.66667 c -0.26591,3.42998 -1.57835,4.18003 -1.74556,5.69021 -0.21994,1.98645 1.33834,2.60658 2.67289,1.52074 0.69779,-2.07761 0.0957,-5.59253 -0.92733,-7.21095 z"
         style="fill:#000000;fill-opacity:1;stroke:none;stroke-width:0.66499996;stroke-linecap:round;stroke-linejoin:round;stroke-miterlimit:4;stroke-dasharray:none;stroke-opacity:1" />
      <path
         sodipodi:nodetypes="csscc"
         inkscape:connector-curvature="0"
         id="path840"
         d="m 189.66114,129.98995 c -1.66672,-9.36634 -9.5618,-15.41594 -13.50367,-14.71619 -2.95321,0.52424 -4.23856,3.07758 -6.48222,6.42582 -2.50814,3.74292 -4.87799,7.20127 -4.23541,12.39964 8.85515,-6.53891 16.4853,-4.97399 24.2213,-4.10927 z"
         style="fill:#cf6a78;fill-opacity:1;stroke:none;stroke-width:0.66499996;stroke-linecap:round;stroke-linejoin:round;stroke-miterlimit:4;stroke-dasharray:none;stroke-opacity:1" />
      <path
         sodipodi:nodetypes="ccccccccccccc"
         inkscape:connector-curvature="0"
         id="path851"
         d="m 220.49736,169.71288 c 6.33958,-6.17203 12.2773,-12.65662 16.23662,-20.67997 l 2.03249,-1.81583 1.24548,2.41438 c -0.7651,2.55186 -2.35514,4.97925 -4.25961,7.13757 -0.51402,3.07406 0.0778,6.10933 1.35685,9.12048 -0.5498,0.13517 -1.13537,0.0379 -1.74814,-0.23624 0.19103,1.92313 0.22744,3.78828 -0.63784,5.31529 -1.57439,0.0954 -3.03634,-0.0983 -4.29948,-0.8032 -1.14798,3.31719 -2.97834,6.10709 -5.10267,8.66983 0.19478,-3.04093 0.3168,-6.07457 0.0709,-9.07143 -1.74418,0.18581 -3.37314,0.16421 -4.8946,-0.0509 z"
         style="fill:#b6bfbe;fill-opacity:1;stroke:none;stroke-width:0.66499996;stroke-linecap:round;stroke-linejoin:round;stroke-miterlimit:4;stroke-dasharray:none;stroke-opacity:1" />
      <path
         sodipodi:nodetypes="ccsssssssscc"
         inkscape:connector-curvature="0"
         id="path855"
         d="m 209.13895,162.41685 c 0.10338,-1.13393 0.13809,-2.26785 0,-3.40178 -1.35037,-2.38721 -3.34137,-3.84044 -4.66998,-4.9174 -0.62654,-0.50787 -1.33694,-0.82174 -2.32157,-0.84401 -2.24169,-0.0507 -4.44613,0.51724 -5.6673,0.9014 -1.19568,0.37613 -3.17442,0.95542 -5.05801,1.86143 -1.37679,0.66224 -1.61965,1.47962 -1.4274,2.51907 0.087,0.47014 0.28351,0.86486 0.54195,1.24813 0.36987,0.54852 0.36857,1.40187 0.30557,1.97179 -0.15439,1.39652 -0.64911,2.28828 -1.06618,3.01496 -0.71593,1.24741 -1.22664,3.05963 0.6531,4.00114 6.56814,-0.87501 14.52535,-3.07877 18.70982,-6.35473 z"
         style="fill:#c32f45;fill-opacity:1;stroke:none;stroke-width:0.66499996;stroke-linecap:round;stroke-linejoin:round;stroke-miterlimit:4;stroke-dasharray:none;stroke-opacity:1" />
      <path
         sodipodi:nodetypes="cccc"
         inkscape:connector-curvature="0"
         id="path857"
         d="m 206.96684,122.37277 c 4.49417,-5.76267 2.89313,-8.46099 14.00749,-17.71541 l 2.05524,5.05544 c -5.61308,4.02709 -10.91988,8.27087 -16.06273,12.65997 z"
         style="fill:#916ba5;fill-opacity:1;stroke:none;stroke-width:0.66499996;stroke-linecap:round;stroke-linejoin:round;stroke-miterlimit:4;stroke-dasharray:none;stroke-opacity:1" />
      <path
         sodipodi:nodetypes="csssccc"
         inkscape:connector-curvature="0"
         id="path873"
         d="m 236.73398,149.03291 c 6.12519,1.25817 6.84251,1.03124 8.65633,-1.56468 1.63499,-2.33998 3.15583,-5.27314 4.12972,-7.90444 1.80328,-4.87218 2.23932,-9.94341 0.1502,-11.73572 -2.25133,-1.93148 -5.42679,-1.98943 -8.30881,1.61036 l -0.42522,11.45741 z"
         style="fill:#eee7d5;fill-opacity:1;stroke:none;stroke-width:0.66499996;stroke-linecap:round;stroke-linejoin:round;stroke-miterlimit:4;stroke-dasharray:none;stroke-opacity:1" />
      <path
         sodipodi:nodetypes="ccccccccccccc"
         inkscape:connector-curvature="0"
         id="path877"
         d="m 200.16201,129.53292 -1.04652,0.82919 c 0.17568,0.39 0.40733,0.73717 0.64492,1.09141 -0.97537,-0.41935 -1.75063,-1.12231 -2.53007,-1.85209 -0.0623,0.84832 0.0285,1.67478 -0.3142,2.56315 -1.03101,-1.57272 -1.73007,-3.2561 -2.51354,-4.91133 0.38697,1.79513 1.12076,3.73478 2.56315,5.96967 0.49011,-0.92149 0.54624,-1.87914 0.51263,-2.84427 0.86983,0.86011 1.92168,1.50178 3.00964,2.10013 -0.27802,-0.67298 -0.59145,-1.3263 -0.77722,-2.05053 l 0.82734,-0.67538 0.47904,-0.39948 z"
         style="fill:#000000;fill-opacity:1;stroke:none;stroke-width:0.66499996;stroke-linecap:round;stroke-linejoin:round;stroke-miterlimit:4;stroke-dasharray:none;stroke-opacity:1" />
      <path
         sodipodi:nodetypes="csssssccsssssccc"
         inkscape:connector-curvature="0"
         id="path881"
         d="m 227.00959,210.56182 c 0.88252,1.64423 2.27275,3.5133 2.84768,6.015 0.60664,2.63967 0.89472,5.65228 1.17496,8.4679 0.43249,4.3453 0.22339,8.86508 -0.96589,12.99445 -0.62778,2.17974 -1.763,4.52578 -3.6195,7.14758 -5.79698,8.18664 -13.85963,16.77653 -22.24956,25.05202 -13.53085,13.34627 -28.11429,25.33787 -35.98118,31.99972 -1.00819,1.14854 -1.59992,2.67897 -1.02899,4.5135 33.41863,-18.01556 67.8224,-54.03171 71.94734,-59.3608 0.66121,-0.85422 1.03955,-1.61699 1.24437,-2.42297 0.32529,-1.28004 0.43654,-2.61513 0.28898,-4.02238 -0.24428,-2.32966 -0.72697,-5.29114 -1.40606,-8.46615 -0.9495,-4.43934 -1.5001,-9.34974 -2.66145,-13.51072 -1.26405,-4.52889 -4.21047,-6.64988 -7.26464,-9.34955 -0.67857,0.3053 -1.33391,0.38106 -1.95935,0.36573 -0.12525,0.2302 -0.26276,0.43185 -0.36671,0.57667 z"
         style="fill:#6a471d;fill-opacity:1;stroke:none;stroke-width:0.66499996;stroke-linecap:round;stroke-linejoin:round;stroke-miterlimit:4;stroke-dasharray:none;stroke-opacity:1" />
      <path
         sodipodi:nodetypes="csscsssscc"
         inkscape:connector-curvature="0"
         id="path889"
         d="m 257.81988,249.16376 c -4.86671,6.57763 -6.57625,10.39824 -6.48496,11.14135 0.0718,0.58473 1.01698,0.97953 2.53517,1.51524 2.07362,0.73169 4.88885,2.01855 8.66272,3.82653 -0.5533,-2.75678 -1.78604,-3.67534 -1.94277,-4.16658 -0.329,-1.0312 0.2933,-2.28798 0.0545,-3.44167 -0.13829,-0.66794 -1.03881,-1.25389 -1.13278,-1.92556 -0.17124,-1.22397 0.62397,-2.04443 0.63225,-2.68821 0.0222,-1.72763 -1.8434,-3.7652 -2.32408,-4.2611 z"
         style="fill:#f0afd9;fill-opacity:1;stroke:none;stroke-width:0.66499996;stroke-linecap:round;stroke-linejoin:round;stroke-miterlimit:4;stroke-dasharray:none;stroke-opacity:1" />
      <path
         sodipodi:nodetypes="cssssccc"
         inkscape:connector-curvature="0"
         id="path906"
         d="m 195.78829,195.41085 c -4.20141,-2.03392 -7.41306,-4.2618 -10.12951,-6.13518 -2.1834,-1.50576 -4.04689,-2.78251 -5.84727,-3.54543 -1.83551,-0.7778 -3.49925,-1.17599 -5.11865,-1.10326 -1.82184,0.0818 -3.3099,0.69009 -5.05818,2.50963 -2.76158,2.87414 -8.71907,11.78018 -12.57374,20.38823 9.07425,0.2495 20.64855,2.07595 35.4533,5.94007 2.40315,-4.2076 3.47372,-10.51734 3.27405,-18.05406 z"
         style="fill:#eee7d5;fill-opacity:1;stroke:none;stroke-width:0.66499996;stroke-linecap:round;stroke-linejoin:round;stroke-miterlimit:4;stroke-dasharray:none;stroke-opacity:1" />
      <path
         sodipodi:nodetypes="csscc"
         inkscape:connector-curvature="0"
         id="path922"
         d="m 168.89429,322.39997 c -0.42584,-3.44823 2.93885,-9.5233 6.07443,-11.81466 2.5485,-1.86234 5.51724,-2.67737 8.14179,-2.54408 6.69777,0.34017 9.44549,6.165 3.81445,14.35874 z"
         style="fill:#ffffff;fill-opacity:1;stroke:none;stroke-width:0.66499996;stroke-linecap:round;stroke-linejoin:round;stroke-miterlimit:4;stroke-dasharray:none;stroke-opacity:1" />
      <path
         sodipodi:nodetypes="cscc"
         inkscape:connector-curvature="0"
         id="path924"
         d="m 200.16149,322.39997 c -1.61898,-4.22321 6.22455,-10.73024 11.89943,-10.40517 5.57667,0.31945 8.44692,5.86179 7.76826,10.40517 z"
         style="fill:#ffffff;fill-opacity:1;stroke:none;stroke-width:0.66499996;stroke-linecap:round;stroke-linejoin:round;stroke-miterlimit:4;stroke-dasharray:none;stroke-opacity:1" />
      <path
         sodipodi:nodetypes="csssssssssssssscsssssc"
         inkscape:connector-curvature="0"
         id="path928"
         d="m 94.012056,279.92816 c -1.942682,1.87965 -1.34627,3.29306 -2.030137,4.94896 -0.198484,0.4806 -0.423197,0.85021 -0.623533,1.15934 -0.237848,0.36703 -0.454915,0.65449 -0.659948,0.91834 -0.204341,0.26295 -0.330083,0.53008 -0.333174,0.87861 -0.01171,1.32087 0.403782,2.6482 1.432784,4.09167 0.955924,1.34096 2.069581,2.67836 3.11152,3.99814 1.946987,2.46616 4.169639,4.77257 5.897642,6.69173 2.79162,3.10044 5.62251,5.84242 7.27765,8.26345 0.62553,0.91498 1.13315,1.79164 1.47645,2.6349 0.67483,1.65763 1.23305,3.03574 1.66771,4.07125 0.35365,0.8425 0.82546,1.4104 1.5005,1.64848 0.57596,0.20314 1.14465,0.0633 1.86773,-0.42175 0.54397,-0.36486 1.22906,-0.87141 2.09547,-1.55614 1.76593,-1.39565 4.47887,-3.38247 8.20323,-6.48164 4.12175,-3.42985 9.54842,-7.99058 16.1689,-15.08313 -0.0461,-4.82402 -3.62607,-5.46778 -3.59559,-7.48656 0.007,-0.46045 0.56895,-1.03924 1.21909,-1.56732 0.6194,-0.5031 1.29294,-0.95267 1.36972,-1.62394 0.12639,-1.10497 -0.11605,-2.08665 -3.73825,-3.55717 -3.56677,-1.44802 -7.40989,-2.51424 -11.24117,-2.85451 -9.56413,-0.84943 -20.69576,-0.55974 -31.066594,1.32729 z"
         style="fill:#b24c8e;fill-opacity:1;stroke:none;stroke-width:0.66499996;stroke-linecap:round;stroke-linejoin:round;stroke-miterlimit:4;stroke-dasharray:none;stroke-opacity:1" />
      <path
         sodipodi:nodetypes="ccc"
         inkscape:connector-curvature="0"
         id="path930"
         d="m 102.85677,284.89531 c 8.40432,-4.61051 14.01365,-3.86949 19.24844,-2.71198 -5.65029,3.31098 -11.95127,3.39101 -19.24844,2.71198 z"
         style="fill:#000000;fill-opacity:1;stroke:none;stroke-width:0.66499996;stroke-linecap:round;stroke-linejoin:round;stroke-miterlimit:4;stroke-dasharray:none;stroke-opacity:1" />
      <path
         sodipodi:nodetypes="ccccccc"
         inkscape:connector-curvature="0"
         id="path934"
         d="m 283.48609,322.39997 c -0.002,-1.62397 -0.30403,-3.27385 -0.84188,-4.91376 -4.41119,-4.18326 -12.80156,-9.13765 -25.44407,-6.59487 -3.48625,0.72943 -3.59168,2.24488 -1.54348,3.78854 2.25351,1.79915 2.18442,3.70807 -0.0468,3.88207 -3.79012,0.28933 -1.23199,3.31282 -0.28063,3.83802 z"
         style="fill:#b24c8e;fill-opacity:1;stroke:none;stroke-width:0.66499996;stroke-linecap:round;stroke-linejoin:round;stroke-miterlimit:4;stroke-dasharray:none;stroke-opacity:1" />
      <path
         sodipodi:nodetypes="cccccsc"
         inkscape:connector-curvature="0"
         id="path956"
         d="m 61.458628,322.39997 h 6.056995 c 0.57399,-14.43149 6.045045,-25.30148 12.371236,-35.54955 -1.200872,0.8651 -2.178681,1.84757 -2.993416,2.89989 1.395867,-8.88947 2.941588,-17.8289 4.864304,-26.89399 -7.524129,5.21048 -14.742755,17.8262 -18.363389,32.3479 -1.821621,7.30618 -2.648757,16.09944 -1.93573,27.19575 z"
         style="fill:#000000;fill-opacity:1;stroke:none;stroke-width:0.66499996;stroke-linecap:round;stroke-linejoin:round;stroke-miterlimit:4;stroke-dasharray:none;stroke-opacity:1" />
      <path
         sodipodi:nodetypes="ccccccc"
         inkscape:connector-curvature="0"
         id="path1028"
         d="m 115.76111,179.368 -2.99342,-13.89134 c -0.43132,-2.0952 -1.10162,-4.07932 -4.0224,-3.64822 -1.4158,0.21154 -2.80918,0.49037 -4.16273,0.88866 -1.74397,0.59159 -2.00565,2.60149 -1.59025,4.2095 l 4.11595,14.52276 z"
         style="fill:#000000;fill-opacity:1;stroke:none;stroke-width:0.66499996;stroke-linecap:round;stroke-linejoin:round;stroke-miterlimit:4;stroke-dasharray:none;stroke-opacity:1" />
      <path
         sodipodi:nodetypes="ccscccccc"
         inkscape:connector-curvature="0"
         id="path1030"
         d="m 112.67415,156.14562 c 0.23925,1.46721 0.31106,2.83396 -0.0702,3.92886 -9.80273,2.12902 -10.97954,1.81874 -11.13542,-0.77293 -0.12779,-2.12479 1.83468,-2.84015 8.46941,-2.99223 2.36269,-0.0202 0.15745,-8.2086 -0.1359,-15.01661 -0.0194,-0.81562 1.02222,-2.45914 2.11667,-2.61276 2.16816,-0.283 4.15445,-0.38414 6.15156,-0.4961 1.76916,-0.0944 2.24382,0.65924 2.51354,2.0836 2.79402,13.29333 1.05189,14.23233 -7.90966,15.87817 z"
         style="fill:#000000;fill-opacity:1;stroke:none;stroke-width:0.66499996;stroke-linecap:round;stroke-linejoin:round;stroke-miterlimit:4;stroke-dasharray:none;stroke-opacity:1" />
      <path
         sodipodi:nodetypes="ccccc"
         inkscape:connector-curvature="0"
         id="path1036"
         d="m 149.69432,182.47835 0.81851,-16.20656 c 2.15545,-3.14065 6.26334,-3.46743 8.32545,0.35079 l -0.28063,17.16539 c -2.77459,-1.96244 -5.91059,-1.88394 -8.86333,-1.30962 z"
         style="fill:#000000;fill-opacity:1;stroke:none;stroke-width:0.66499996;stroke-linecap:round;stroke-linejoin:round;stroke-miterlimit:4;stroke-dasharray:none;stroke-opacity:1" />
    </g>
  </g>
</svg>
