<?xml version="1.0" encoding="UTF-8" standalone="no"?>
<!-- Created with Inkscape (http://www.inkscape.org/) -->

<svg
   xmlns:dc="http://purl.org/dc/elements/1.1/"
   xmlns:cc="http://creativecommons.org/ns#"
   xmlns:rdf="http://www.w3.org/1999/02/22-rdf-syntax-ns#"
   xmlns:svg="http://www.w3.org/2000/svg"
   xmlns="http://www.w3.org/2000/svg"
   xmlns:sodipodi="http://sodipodi.sourceforge.net/DTD/sodipodi-0.dtd"
   xmlns:inkscape="http://www.inkscape.org/namespaces/inkscape"
   width="1557mm"
   height="600mm"
   viewBox="0 0 1557 600"
   version="1.1"
   id="svg8"
   inkscape:version="0.92.4 (33fec40, 2019-01-16)"
   sodipodi:docname="pentagram_home_video.svg"
   inkscape:export-filename="C:\Users\nyk\Pictures\wallpapers\The Satanic Path (m).png"
   inkscape:export-xdpi="45.890495"
   inkscape:export-ydpi="45.890495">
  <defs
     id="defs2" />
  <sodipodi:namedview
     id="base"
     pagecolor="#ffffff"
     bordercolor="#666666"
     borderopacity="1.0"
     inkscape:pageopacity="0.0"
     inkscape:pageshadow="2"
     inkscape:zoom="0.1767767"
     inkscape:cx="2677.3889"
     inkscape:cy="1255.5763"
     inkscape:document-units="mm"
     inkscape:current-layer="layer2"
     showgrid="false"
     showborder="true"
     inkscape:snap-global="true"
     inkscape:snap-bbox="true"
     inkscape:bbox-paths="true"
     inkscape:bbox-nodes="true"
     inkscape:snap-bbox-edge-midpoints="true"
     inkscape:snap-bbox-midpoints="true"
     inkscape:snap-nodes="true"
     inkscape:object-paths="true"
     inkscape:snap-intersection-paths="true"
     inkscape:snap-smooth-nodes="true"
     inkscape:snap-midpoints="true"
     inkscape:snap-object-midpoints="true"
     inkscape:snap-center="true"
     inkscape:snap-text-baseline="true"
     inkscape:snap-page="true"
     inkscape:window-width="1914"
     inkscape:window-height="1055"
     inkscape:window-x="2"
     inkscape:window-y="2"
     inkscape:window-maximized="0" />
  <metadata
     id="metadata5">
    <rdf:RDF>
      <cc:Work
         rdf:about="">
        <dc:format>image/svg+xml</dc:format>
        <dc:type
           rdf:resource="http://purl.org/dc/dcmitype/StillImage" />
        <dc:title></dc:title>
      </cc:Work>
    </rdf:RDF>
  </metadata>
  <g
     inkscape:groupmode="layer"
     id="layer2"
     inkscape:label="background ratio template"
     style="display:inline"
     transform="translate(0,303)">
    <rect
       style="opacity:1;fill:#985370;fill-opacity:1;stroke:none;stroke-width:1.89280736;stroke-linecap:round;stroke-linejoin:round;stroke-miterlimit:4;stroke-dasharray:none;stroke-opacity:1"
       id="rect860"
       width="600.02881"
       height="642.39996"
       x="-303.02884"
       y="1.0362019e-05"
       transform="matrix(0,1,1,0,0,0)" />
    <rect
       style="opacity:1;fill:#000000;fill-opacity:1;stroke:none;stroke-width:0.51566178;stroke-linecap:butt;stroke-linejoin:miter;stroke-miterlimit:4;stroke-dasharray:none;stroke-opacity:1;paint-order:normal"
       id="rect830"
       width="914.60004"
       height="600.02881"
       x="642.39996"
       y="-303.02884" />
  </g>
  <g
     inkscape:groupmode="layer"
     id="layer1"
     inkscape:label="layer 2"
     style="display:inline"
     transform="translate(0,303)">
    <g
       id="g850"
       transform="matrix(2.9576339,0,0,2.9576339,1101.0784,-598.13648)">
      <path
         sodipodi:nodetypes="cccccccc"
         inkscape:connector-curvature="0"
         id="path840"
         d="m -34.881587,237.26204 -6.811414,-10.38375 8.075506,-5.29841 17.253032,8.39011 0.654831,1.96938 169.860432,53.97604 v 16.73749 z"
         style="opacity:1;fill:#c481b4;fill-opacity:1;stroke:none;stroke-width:5;stroke-linecap:butt;stroke-miterlimit:4;stroke-dasharray:none" />
      <path
         sodipodi:nodetypes="cccccc"
         inkscape:connector-curvature="0"
         id="path832"
         d="m -15.761312,181.08976 31.400755,-8.8399 0.292326,50.42624 -31.641401,9.26327 -6.214821,-18.69079 z"
         style="opacity:1;fill:#facbdf;fill-opacity:1;stroke:none;stroke-width:5;stroke-linecap:butt;stroke-miterlimit:4;stroke-dasharray:none" />
      <path
         inkscape:connector-curvature="0"
         id="path830"
         d="m -34.933268,185.68896 -13.849283,-4.5992 17.931722,-4.65088 15.089517,4.65088 0.05168,50.84961 -19.183501,-6.20126 -9.101934,-7.37382 z"
         style="opacity:1;fill:#985370;fill-opacity:1;stroke:none;stroke-width:5;stroke-linecap:butt;stroke-miterlimit:4;stroke-dasharray:none" />
      <path
         inkscape:connector-curvature="0"
         id="path828"
         d="m -67.592773,194.26725 32.659505,-8.57829 0.05168,51.57308 -32.711181,9.71517 -16.433106,-32.86621 z"
         style="opacity:1;fill:#facbdf;fill-opacity:1;stroke:none;stroke-width:5;stroke-linecap:butt;stroke-miterlimit:4;stroke-dasharray:none" />
      <path
         inkscape:connector-curvature="0"
         id="path826"
         d="m -150.37842,171.89135 82.785647,22.3759 v 52.70996 l -82.837317,-24.0037 z"
         style="opacity:1;fill:#985370;fill-opacity:1;stroke:none;stroke-width:5;stroke-linecap:butt;stroke-miterlimit:4;stroke-dasharray:none" />
      <path
         sodipodi:nodetypes="ccccc"
         inkscape:connector-curvature="0"
         id="path838"
         d="m -29.30599,117.20089 8.838379,38.29968 -46.593878,13.25024 -10.160937,-40.2857 z"
         style="opacity:1;fill:#f0587e;fill-opacity:1;stroke:none;stroke-width:5;stroke-linecap:butt;stroke-miterlimit:4;stroke-dasharray:none" />
      <ellipse
         ry="20.901312"
         rx="19.037733"
         cy="148.57144"
         cx="-72.021828"
         id="path834"
         style="opacity:1;fill:#b35895;fill-opacity:1;stroke:none;stroke-width:5.36941767;stroke-linecap:butt;stroke-miterlimit:4;stroke-dasharray:none" />
      <ellipse
         style="opacity:1;fill:#f0587e;fill-opacity:1;stroke:none;stroke-width:5.21222973;stroke-linecap:butt;stroke-miterlimit:4;stroke-dasharray:none"
         id="ellipse836"
         cx="-25.395823"
         cy="136.47646"
         rx="19.037733"
         ry="19.695467" />
    </g>
  </g>
  <g
     inkscape:groupmode="layer"
     id="layer5"
     inkscape:label="layer 4"
     style="display:inline;opacity:1"
     transform="translate(0,303)">
    <g
       id="g888"
       transform="matrix(1.7487502,0,0,1.7487502,329.36794,-262.16888)">
      <path
         sodipodi:nodetypes="ccccsssssssssssssssssccsssssssssssssssssssssssssssssssssssssssssssssssssssscccccccccssssssssssssssscc"
         inkscape:connector-curvature="0"
         id="path878"
         d="m -114.01265,319.75343 52.71621,-22.68807 35.504412,22.68807 H 179.00328 c -3.03679,-5.90327 -4.38827,-6.57015 -6.01237,-8.70812 -1.82849,-2.40704 -3.21022,-4.0237 -4.26875,-5.21055 -2.44439,-2.74068 -3.43854,-3.08004 -5.50647,-5.05699 -2.05357,-1.96323 -3.66094,-3.32735 -4.82704,-4.41894 -2.80087,-2.62193 -4.26645,-2.93478 -7.54675,-3.58827 -4.04624,-0.80609 -7.42077,-0.92369 -10.20406,-3.2758 -1.6684,-1.40994 -3.30395,-2.63257 -5.04074,-3.65372 -8.65714,-5.08996 -14.45303,-7.33255 -19.67393,-10.72013 -6.7448,-4.37636 -10.81317,-6.67695 -14.00543,-8.24326 -1.965596,-0.96443 -3.971227,-1.48817 -6.697018,-1.77105 -1.634759,-0.16966 -3.07327,-0.46627 -4.307606,-1.0055 -4.326431,-1.89003 -7.184629,-2.84161 -9.345721,-3.6439 -2.411802,-0.89537 -4.204293,-1.25809 -6.668326,-1.88004 -1.589775,-0.40128 -2.748869,-0.80426 -3.512234,-1.37501 -0.672268,-0.50263 -1.246235,-1.11874 -1.798586,-1.75375 -1.726226,-1.98457 -3.264401,-4.01018 -4.625945,-6.10566 -1.194723,-1.83874 -2.629431,-4.26375 -3.867195,-7.20585 -1.443454,-3.43101 -1.550957,-27.50634 0.565568,-48.46996 L 89.11283,91.949414 c 1.437269,-5.165218 0.598492,-8.763748 -0.07877,-11.279677 -0.82755,-3.074214 -2.262661,-4.686369 -2.969482,-6.285258 -0.617552,-1.396955 -0.989339,-2.461671 -0.671527,-3.696114 0.44443,-1.726245 0.960119,-3.103184 1.021748,-4.576009 0.153658,-3.672107 0.55253,-5.561182 0.21789,-7.012115 -0.163616,-0.70941 -0.436325,-1.309346 -0.889986,-1.953965 C 84.816596,55.830349 83.872443,54.696235 83.09348,52.829785 81.82193,49.783058 80.527732,47.320786 79.408158,44.752877 79.078191,43.996049 78.650659,43.303976 78.100544,42.678708 77.218688,41.67638 76.480373,40.693466 75.962587,39.678635 75.278852,38.33855 74.586188,37.175754 73.881472,36.178849 73.347792,35.423896 72.707721,34.775018 71.92994,34.230561 70.054719,32.917882 68.619168,31.682117 68.002739,30.150275 65.260576,23.335937 64.133506,21.99897 62.907461,20.582792 61.849494,19.360755 60.84719,19.5081 58.948247,19.100277 58.353926,18.972639 57.752849,18.792179 57.136944,18.500303 56.011106,17.966771 55.160978,17.419286 54.679786,16.656984 54.143365,15.807186 53.689889,15.083704 53.288443,14.375896 51.809433,11.768184 50.222471,10.979829 45.862021,8.6870225 41.615391,6.4540645 38.533776,5.5537293 37.640256,5.449699 36.754022,5.346517 35.781567,5.4443081 34.160003,4.8136509 33.405158,4.5200769 32.674421,4.1762435 31.95441,3.7167356 30.491819,2.7833161 29.195277,1.9638503 28.012512,1.0008358 26.332445,-0.36708549 24.943382,-1.2991076 23.732381,-2.0977544 20.276321,-4.3770033 18.469063,-3.4770296 15.9688,-3.442238 c -0.366821,0.0051 -0.698958,-0.048418 -0.996768,-0.1790157 -0.525922,-0.2306305 -1.00232,-0.4613241 -1.444926,-0.7361848 -0.24929,-0.1548104 -0.577749,-0.2357164 -0.96913,-0.2900875 -0.455609,-0.063294 -0.9056,-0.094072 -1.34537,-0.1271673 -3.6816237,-0.2770656 -6.747605,0.080975 -9.0263398,0.6661867 -1.95798635,0.502839 -3.6009045,0.7725101 -4.9366188,0.3744134 -0.5728876,-0.1707435 -1.0756553,-0.3689147 -1.5066904,-0.6131445 -1.1671255,-0.6613078 -2.1859665,-1.1385265 -3.1836136,-1.5816968 -1.2792088,-0.5682443 -2.7058864,-0.4171148 -4.6343144,0.4513341 -3.503,1.5775416 -7.07046,3.3457273 -10.779475,5.07879423 -3.35677,1.56847737 -6.969277,3.35310707 -10.736419,5.42481057 -1.381712,0.759859 -2.91897,1.433218 -4.581606,2.0469578 -6.840753,2.5251712 -11.472731,4.9212298 -15.34605,8.3387488 -1.186995,1.047314 -2.652867,2.060118 -4.318285,3.11663 -2.343191,1.48648 -5.296679,2.785168 -8.521127,4.264755 -1.527622,0.700972 -2.562211,1.711293 -3.244353,2.984443 -0.607531,1.133896 -1.166905,2.375336 -1.703875,3.723543 -0.326355,0.819404 -0.779441,1.600504 -1.335862,2.359927 -2.084675,2.845236 -4.080611,6.090903 -6.100522,9.996487 -0.485702,0.939125 -1.063761,1.776396 -1.708831,2.556843 -1.361325,1.647018 -1.766685,2.577377 -1.846712,3.535386 -0.06496,0.777584 -0.182485,1.766659 -0.494711,3.223953 -0.171136,0.798767 -0.598938,1.73659 -1.201834,2.856599 -0.688305,1.278675 -2.245944,2.909408 -4.08067,4.872211 -1.729879,1.850638 -3.199164,3.195066 -4.376271,4.751393 -0.562665,0.743934 -0.740534,1.405868 -0.730919,2.14656 0.01901,1.464535 -0.333807,3.538286 -0.837265,6.987637 -0.452002,3.096818 -0.301956,7.664159 -1.560203,13.171421 l 0.07476,14.638661 c 0.920373,9.45628 -0.387681,12.60949 1.184531,18.19067 l 6.119191,22.47931 c 3.308512,6.96544 1.139092,11.29561 3.603352,17.1416 l 13.746337,16.56238 c 0.829414,8.088 1.830879,15.0742 1.862847,22.05237 l -2.841294,56.3606 -30.387133,19.24843 c -3.0006,1.87309 -6.55351,2.94177 -9.35661,4.25094 -2.01631,0.94172 -3.73825,1.72712 -4.88314,2.13927 -0.91957,0.33104 -1.76957,0.80827 -2.51318,1.48887 -0.52514,0.48065 -1.11658,0.96587 -1.79694,1.45037 -2.19149,1.56059 -4.66453,3.14712 -7.58999,4.61262 -1.89757,0.95059 -3.55005,1.86446 -4.80642,2.70795 -0.81681,0.54838 -1.64315,1.044 -2.48286,1.47171 -0.90263,0.45975 -1.81295,0.7685 -2.73377,0.88904 -0.75998,0.0995 -1.52283,0.32185 -2.28931,0.69468 -4.6423,2.25815 -8.62214,4.2059 -12.4201,6.06108 -1.81251,0.88535 -3.48235,1.89787 -5.10815,2.9933 -1.77855,1.19835 -3.65909,2.0459 -5.67922,2.75094 -1.2479,0.43553 -2.47769,0.97607 -3.73073,1.59817 -1.36447,0.67742 -2.7467,1.19675 -4.2058,1.67658 -2.17103,0.71395 -4.20439,1.94278 -6.62717,3.42691 -4.30962,2.63996 -5.74458,4.25247 -9.904,8.90748 z"
         style="opacity:1;fill:#3e3232;fill-opacity:1;stroke:none;stroke-width:5;stroke-linecap:butt;stroke-miterlimit:4;stroke-dasharray:none" />
      <path
         sodipodi:nodetypes="csssscssssssssssssssssssssssssssssssssssscsssscssssscsssssssssssssssssssssssssssssssssssssssssssssssssssssssssssssssssscc"
         inkscape:connector-curvature="0"
         id="path865"
         d="M 23.532246,80.532562 C 15.786643,72.930394 11.029459,73.426948 7.5561947,69.241678 5.6259129,66.915696 4.1599024,64.385141 2.9784838,61.526065 1.0392312,56.833002 0.36865315,53.13219 0.77826769,50.273145 1.1200145,47.887806 2.6625225,44.831281 4.5414653,42.466172 c 1.6280294,-2.049274 4.6554854,-1.624233 9.7212297,-0.437689 7.246646,7.578713 10.52878,9.727599 13.872231,11.195236 2.069693,0.908509 4.092871,1.583971 6.894482,3.2048 2.558017,1.479901 5.150432,2.81273 7.761553,3.916042 5.804322,2.452578 11.048197,4.133734 14.432612,4.763777 2.274413,0.423405 4.263599,0.816619 5.981563,1.422008 0.990144,0.348914 1.889252,0.704214 2.699684,1.090461 1.429729,0.681402 2.758535,1.447294 4.093864,2.426158 1.666635,1.221729 2.986087,2.473463 3.963235,3.832715 0.922519,1.283262 1.932922,2.715643 3.213273,4.386501 1.152763,1.504356 2.333803,2.986001 3.608497,4.433627 1.64895,1.872653 3.215915,3.667918 4.744589,5.352928 2.253089,2.48351 4.335838,4.755033 6.341813,6.723966 1.139129,1.118093 2.187847,2.167432 3.146458,3.138816 1.42954,1.44859 2.639551,2.892062 3.624291,4.359172 3.51836,5.24179 5.91204,9.88915 8.89132,14.24396 1.11168,1.62494 2.38297,3.19096 3.92658,4.70817 1.38177,1.35813 2.7631,2.64414 4.17057,3.85709 2.79254,2.4066 5.38557,4.55584 7.84906,6.45417 7.06211,5.44198 12.57038,9.08228 17.61937,11.36777 1.92701,0.87228 3.71677,1.60556 5.40809,2.24298 3.07948,1.16059 5.65016,2.09462 7.85181,3.10971 3.91443,1.80476 6.6174,4.1704 8.85923,9.06472 2.43162,5.30869 3.50088,10.84485 3.61238,17.26675 0.0931,5.36002 -0.61998,11.44513 -1.96773,18.6877 -1.09574,5.88832 -5.22419,13.99342 -7.61572,18.26285 -2.84073,5.07134 -6.43892,10.7096 -9.81612,15.08548 -2.49883,3.23776 -5.42707,6.90187 -8.83059,11.14915 -0.90929,1.13471 -1.79992,2.14618 -2.66868,3.02347 -0.97839,0.98798 -2.08427,1.64611 -3.23232,2.04121 -5.21268,1.79393 -8.49949,-0.86234 -15.14826,-7.57826 -2.86199,-2.8909 -5.98307,-6.06483 -9.26153,-9.08672 -3.24926,-2.99498 -6.65771,-6.00609 -10.129089,-8.70848 -3.004259,-2.33875 -5.871816,-4.60152 -8.467168,-6.63947 -4.730079,-3.71419 -9.585181,-7.3992 -14.367189,-10.5878 -3.061537,-2.0414 -6.195808,-3.76294 -9.381342,-5.00743 -4.372682,-1.70827 -8.180315,-2.90552 -11.132379,-3.32293 -8.173767,1.5251 -19.923504,1.44514 -23.827198,0.70096 -7.854922,-1.49743 -15.520386,-3.0944 -20.237609,-2.92706 -7.4482138,0.26422 -15.1269618,4.98848 -24.870782,8.04505 -4.67746,1.46728 -8.16057,2.46521 -13.393386,2.45549 -4.332638,-0.008 -9.244654,-0.96523 -18.267478,-2.40197 -1.539761,-2.57584 -2.152635,-4.84416 -2.026146,-6.86718 0.29156,-4.66311 4.571376,-7.15848 10.469697,-9.30342 2.161666,-0.7861 4.067702,-1.10235 5.958343,-1.35719 1.646991,-0.222 3.266646,-0.34731 5.031521,-0.68992 1.36777,-0.26551 2.912962,-0.59013 4.629113,-1.1887 3.634989,-1.26784 7.086903,-4.27632 13.1445043,-9.5324 -10.2935943,-1.62194 -16.6566273,1.6369 -22.2280093,2.59392 -0.842396,0.1447 -1.651336,0.27813 -2.430702,0.39422 -5.168721,0.76986 -9.27199,1.2081 -14.057395,0.67066 -2.85106,-0.3202 -5.383713,-0.47389 -7.501122,-0.17057 -2.906699,0.41639 -5.531344,0.87215 -8.070951,1.38388 -3.116788,0.62804 -5.84693,1.11054 -8.336007,1.28389 -7.282458,0.50717 -11.453649,-0.15671 -14.137816,-3.24254 -3.226714,-3.70957 -3.49204,-7.73791 -2.470654,-9.76714 1.217855,-2.41955 4.295131,-4.57729 6.427397,-5.49753 1.875175,-0.80928 5.034402,-1.35955 9.038377,-1.49579 2.315812,-0.0788 4.552908,-0.20636 6.503788,-0.41615 0.972514,-0.10458 1.893898,-0.2447 2.741483,-0.4268 1.392562,-0.29917 2.70735,-0.71846 3.872668,-1.28804 2.781526,-1.35956 5.357832,-2.35239 7.093425,-2.74658 0.824589,-0.18728 1.849942,-0.35882 3.09085,-0.51511 1.352035,-0.17028 2.66314,-0.41443 3.8883,-0.75293 5.057047,-1.39722 9.866165,-2.49808 12.273779,-3.16008 3.874412,-1.06533 7.649507,-1.99099 8.765456,-3.22808 0.33087,-0.36678 0.591538,-0.71191 0.752957,-1.03583 0.287216,-0.57637 0.386621,-1.04987 0.182682,-1.40948 -0.299669,-0.52841 -0.656106,-0.87882 -1.138983,-1.04999 -0.863697,-0.30616 -2.201862,-0.31872 -4.466469,-0.24377 -3.173512,0.10503 -6.514583,0.50256 -9.860954,0.72809 -2.855237,0.19244 -5.686763,0.43426 -8.378192,0.53575 -4.400525,0.16594 -8.537826,0.47839 -11.989812,0.51407 -2.292654,0.0237 -4.538351,0.0685 -6.718232,0.069 -2.607277,6.7e-4 -5.039029,-0.0201 -7.227851,-0.15604 -2.18429,-0.13562 -4.059842,-0.20172 -5.5345,-0.22199 -1.802494,-0.0248 -3.34714,0.067 -4.60518,0.25163 -1.73639,0.25489 -3.28684,0.55499 -4.754635,0.77273 -1.819146,0.26988 -3.413574,0.57834 -4.92827,0.76978 -1.498677,0.18942 -2.820621,0.36637 -4.062409,0.4255 -1.644864,0.0783 -3.061533,0.12204 -4.429561,-0.0255 -1.95686,-0.21098 -3.59791,-0.56988 -5.31321,-1.38257 -2.40611,-1.13999 -4.04211,-2.48728 -5.31858,-4.38774 -2.05646,-3.06177 -1.8634,-6.15114 0.10321,-9.38702 1.75262,-2.8838 4.28504,-5.09095 6.85842,-6.19872 2.18724,-0.94154 5.053672,-1.6187 8.436589,-2.0092 3.596276,-0.41513 7.06277,-0.64229 9.908423,-0.71107 2.999511,-0.0725 5.945497,-0.35486 8.506994,-1.02976 4.80022,-1.26476 9.629618,-2.04022 13.189467,-2.33788 9.009064,-0.7533 19.878912,-0.38737 24.854149,-1.67134 0.767272,-0.19801 1.546788,-0.37882 2.331773,-0.54455 8.28675,-1.74956 17.182981,-1.81933 18.717433,-2.71824 1.067714,-0.62548 0.903612,-1.07205 -1.604019,-1.79338 -2.828349,-0.81359 -5.703061,-1.1842 -8.291326,-1.77868 -2.182039,-0.50118 -4.360182,-0.74008 -6.437051,-0.91214 -1.936159,-0.1604 -3.851839,-0.20606 -5.697561,-0.27063 -2.377728,-0.0832 -4.768927,-0.0351 -7.131303,-0.0619 -2.87505,-0.0325 -5.686289,-0.0883 -8.346649,-0.49402 -2.751063,-0.41952 -5.404329,-0.49534 -7.892287,-0.26366 -3.039106,0.28301 -5.714899,0.6272 -7.848279,0.77553 -3.005649,0.20899 -5.880813,0.52578 -8.676713,0.52137 -1.927479,-0.003 -3.748264,-0.0663 -5.455895,-0.29913 -3.419657,-0.4663 -6.225109,-1.46928 -8.267204,-3.80068 -2.883797,-3.292346 -4.373447,-6.617992 -4.14019,-10.343428 0.162676,-2.598164 1.525519,-4.615608 4.680801,-6.17192 2.788248,-1.375276 5.475363,-2.655722 9.640169,-3.717046 2.009575,-0.512103 4.496699,-0.735832 7.570871,-0.777873 2.977202,-0.04071 5.093142,-0.290206 7.284064,-0.620645 2.201029,-0.331963 4.490377,-0.543297 7.807922,-0.654519 3.29037,-0.110311 5.714808,-0.758905 10.025895,-1.343197 3.165031,-0.428963 6.174879,-0.758153 11.366918,-0.818462 5.603366,-0.06509 9.701687,1.094414 22.443247,2.067145 4.68956,0.358015 10.4652483,0.711907 17.96982244,0.95711 2.79356986,0.09128 5.82671016,0.0436 9.13257596,0.01289 4.3111996,-0.04005 5.1398206,1.629619 14.3985996,0.312199 z"
         style="opacity:1;fill:#000000;fill-opacity:1;stroke:none;stroke-width:5;stroke-linecap:butt;stroke-miterlimit:4;stroke-dasharray:none" />
      <path
         sodipodi:nodetypes="sscsscs"
         inkscape:connector-curvature="0"
         id="rect880"
         transform="scale(0.26458333)"
         d="m 135.77148,405.4375 c -6.01968,8e-5 -11.75709,-0.9539 -17.39103,0.31712 -35.198848,7.94087 -61.479978,39.30133 -61.480059,76.77858 7.8e-5,38.2983 27.445348,70.20887 63.806109,77.26659 4.91564,0.95414 11.66133,-0.64364 16.85708,-0.64357 43.6292,5.5e-4 69.58086,-33.89637 69.58095,-77.37302 -9e-5,-43.47664 -27.74385,-76.34625 -71.37305,-76.3457 z"
         style="opacity:1;fill:#f0587e;fill-opacity:1;stroke:none;stroke-width:18.89763832;stroke-linecap:butt;stroke-miterlimit:4;stroke-dasharray:none" />
      <path
         sodipodi:nodetypes="ccccccc"
         inkscape:connector-curvature="0"
         id="ellipse869"
         transform="scale(0.26458333)"
         d="m 135.89648,403.8125 c -5.86793,0.0331 -11.78327,0.61497 -17.49906,1.93829 37.07104,7.22507 63.89151,39.69382 63.90336,77.33515 -0.0478,36.74434 -25.61389,68.60759 -61.57797,76.71701 4.99277,0.98214 10.08456,1.44192 15.17367,1.45096 43.6292,5.3e-4 78.99796,-35.24406 78.99805,-78.72071 -9e-5,-43.47664 -35.36885,-78.72123 -78.99805,-78.7207 z"
         style="opacity:1;fill:#b25895;fill-opacity:1;stroke:none;stroke-width:21.93651199;stroke-linecap:butt;stroke-miterlimit:4;stroke-dasharray:none" />
      <path
         sodipodi:nodetypes="csssssssssssssscssssssssssssssscscc"
         inkscape:connector-curvature="0"
         id="path874"
         d="m -114.01265,319.75343 c 7.61146,-13.62916 12.47109,-36.24662 11.81124,-54.37994 -0.0495,-1.35984 -0.1695,-2.69735 -0.3701,-4.00744 -0.92375,-6.03278 -1.46595,-10.82296 -0.59382,-13.23763 0.71643,-1.98359 2.05342,-3.74322 3.870321,-5.32882 1.457479,-1.27192 2.621312,-2.36963 3.560583,-3.34623 0.900373,-0.93617 1.527649,-1.87984 1.962522,-2.84249 0.3191,-0.70638 0.491276,-1.45345 0.558902,-2.23837 0.16109,-1.86976 0.441873,-3.17743 0.96775,-4.37204 0.651884,-1.48085 1.656825,-2.87831 3.276868,-4.95889 0.949061,-1.21885 1.915301,-2.19182 3.117633,-3.48474 0.797817,-0.85793 1.694437,-1.67135 2.757922,-2.75322 0.726584,-0.73915 1.600109,-1.51227 2.591134,-2.48682 0.618198,-0.60793 1.153745,-1.25755 1.678254,-2.01203 1.103356,-1.58711 1.484604,-5.82897 2.902655,-9.75912 1.204106,-3.33719 1.584511,-3.89178 6.931839,-7.52116 3.357067,3.88708 12.108637,17.35849 14.624529,24.85559 0.975571,2.9071 1.720621,5.87162 2.379598,9.09821 0.521095,2.55147 1.081714,5.14319 1.815155,7.79441 0.722889,2.61308 1.690933,5.24122 3.073105,7.87997 1.658822,3.16691 4.187789,6.18789 7.136272,9.1791 1.930448,1.95843 3.937911,3.48227 5.945179,4.80624 1.428013,0.9419 3.286792,1.58233 5.373752,2.08706 1.379954,0.33374 2.84973,0.45844 4.353845,0.46847 2.158633,0.0144 5.024888,-1.23776 8.118553,-2.96599 4.2477,-2.37292 8.2421301,-5.41346 11.2973798,-7.26331 2.7445879,-1.66176 11.3304261,-6.16779 18.6058102,-8.33392 4.296012,-1.27907 10.702304,-1.87946 15.443873,-0.61078 3.699754,0.98993 6.094623,3.77334 5.682088,8.26132 -0.200248,2.1785 -0.899219,3.91058 -2.386964,5.80198 -2.322542,2.95271 -7.021683,7.52937 -14.521353,14.18612 -7.540376,6.69288 -19.5926391,15.85389 -31.545036,26.85041 -1.498126,3.79924 -2.930451,6.44147 -5.058935,9.54536 -2.377536,3.46707 -1.804253,6.42382 -7.139932,11.0887 z"
         style="opacity:1;fill:#000000;fill-opacity:1;stroke:none;stroke-width:5;stroke-linecap:butt;stroke-miterlimit:4;stroke-dasharray:none" />
    </g>
  </g>
</svg>
